<svg xmlns="http://www.w3.org/2000/svg" xmlns:xlink="http://www.w3.org/1999/xlink" width="300" zoomAndPan="magnify" viewBox="0 0 224.87999 89.999999" height="120" preserveAspectRatio="xMidYMid meet" version="1.0"><defs><g/><clipPath id="id1"><path d="M 4.8125 9.808594 L 61.035156 9.808594 L 61.035156 74.273438 L 4.8125 74.273438 Z M 4.8125 9.808594 " clip-rule="nonzero"/></clipPath></defs><g clip-path="url(#id1)"><path fill="#ff5757" d="M 9.371094 53.164062 C 14.394531 60.835938 23.074219 65.914062 32.921875 65.914062 C 48.421875 65.914062 61.035156 53.335938 61.035156 37.871094 C 61.035156 22.410156 48.421875 9.828125 32.921875 9.828125 C 17.425781 9.828125 4.8125 22.410156 4.8125 37.871094 L 4.8125 74.25 L 9.371094 74.25 Z M 39.761719 37.871094 C 39.761719 34.109375 42.828125 31.050781 46.597656 31.050781 C 50.371094 31.050781 53.4375 34.109375 53.4375 37.871094 C 53.4375 41.632812 50.371094 44.691406 46.597656 44.691406 C 42.828125 44.691406 39.761719 41.632812 39.761719 37.871094 Z M 39.761719 51.515625 C 39.761719 55.277344 36.695312 58.335938 32.921875 58.335938 C 29.152344 58.335938 26.085938 55.277344 26.085938 51.515625 C 26.085938 47.753906 29.152344 44.691406 32.921875 44.691406 C 36.695312 44.691406 39.761719 47.753906 39.761719 51.515625 Z M 32.921875 31.050781 C 29.152344 31.050781 26.085938 27.992188 26.085938 24.230469 C 26.085938 20.46875 29.152344 17.410156 32.921875 17.410156 C 36.695312 17.410156 39.761719 20.46875 39.761719 24.230469 C 39.761719 27.992188 36.695312 31.050781 32.921875 31.050781 Z M 26.085938 37.871094 C 26.085938 41.632812 23.019531 44.691406 19.25 44.691406 C 15.476562 44.691406 12.410156 41.632812 12.410156 37.871094 C 12.410156 34.109375 15.476562 31.050781 19.25 31.050781 C 23.019531 31.050781 26.085938 34.109375 26.085938 37.871094 Z M 26.085938 37.871094 " fill-opacity="1" fill-rule="nonzero"/></g><g fill="#ff5757" fill-opacity="1"><g transform="translate(66.73765, 41.433867)"><g><path d="M 12.765625 0.359375 C 11.421875 0.359375 10.316406 0.0976562 9.453125 -0.421875 C 8.597656 -0.953125 7.90625 -1.53125 7.375 -2.15625 L 7.1875 -2.15625 L 6.65625 0 L 2.34375 0 L 2.34375 -25.171875 L 7.375 -25.171875 L 7.375 -17.078125 L 7.546875 -17.078125 C 7.722656 -17.296875 7.957031 -17.539062 8.25 -17.8125 C 8.550781 -18.09375 8.914062 -18.351562 9.34375 -18.59375 C 9.78125 -18.832031 10.28125 -19.03125 10.84375 -19.1875 C 11.40625 -19.34375 12.046875 -19.421875 12.765625 -19.421875 C 13.992188 -19.421875 15.109375 -19.210938 16.109375 -18.796875 C 17.117188 -18.378906 17.988281 -17.75 18.71875 -16.90625 C 19.445312 -16.0625 20.015625 -15.019531 20.421875 -13.78125 C 20.835938 -12.550781 21.046875 -11.132812 21.046875 -9.53125 C 21.046875 -7.894531 20.835938 -6.46875 20.421875 -5.25 C 20.015625 -4.03125 19.445312 -3 18.71875 -2.15625 C 17.988281 -1.320312 17.117188 -0.691406 16.109375 -0.265625 C 15.109375 0.148438 13.992188 0.359375 12.765625 0.359375 Z M 11.6875 -4.140625 C 12.257812 -4.140625 12.8125 -4.238281 13.34375 -4.4375 C 13.875 -4.644531 14.335938 -4.96875 14.734375 -5.40625 C 15.128906 -5.851562 15.4375 -6.414062 15.65625 -7.09375 C 15.882812 -7.78125 16 -8.59375 16 -9.53125 C 16 -10.46875 15.882812 -11.273438 15.65625 -11.953125 C 15.4375 -12.640625 15.128906 -13.203125 14.734375 -13.640625 C 14.335938 -14.085938 13.875 -14.410156 13.34375 -14.609375 C 12.8125 -14.816406 12.257812 -14.921875 11.6875 -14.921875 C 11.113281 -14.921875 10.5625 -14.816406 10.03125 -14.609375 C 9.507812 -14.410156 9.050781 -14.085938 8.65625 -13.640625 C 8.257812 -13.203125 7.945312 -12.640625 7.71875 -11.953125 C 7.488281 -11.273438 7.375 -10.46875 7.375 -9.53125 C 7.375 -8.59375 7.488281 -7.78125 7.71875 -7.09375 C 7.945312 -6.414062 8.257812 -5.851562 8.65625 -5.40625 C 9.050781 -4.96875 9.507812 -4.644531 10.03125 -4.4375 C 10.5625 -4.238281 11.113281 -4.140625 11.6875 -4.140625 Z M 11.6875 -4.140625 "/></g></g></g><g fill="#ff5757" fill-opacity="1"><g transform="translate(88.134192, 41.433867)"><g><path d="M 10.609375 0.359375 C 9.171875 0.359375 7.875 0.140625 6.71875 -0.296875 C 5.570312 -0.742188 4.585938 -1.382812 3.765625 -2.21875 C 2.953125 -3.0625 2.332031 -4.09375 1.90625 -5.3125 C 1.476562 -6.539062 1.265625 -7.945312 1.265625 -9.53125 C 1.265625 -11.113281 1.476562 -12.515625 1.90625 -13.734375 C 2.332031 -14.960938 2.953125 -15.992188 3.765625 -16.828125 C 4.585938 -17.671875 5.570312 -18.3125 6.71875 -18.75 C 7.875 -19.195312 9.171875 -19.421875 10.609375 -19.421875 C 12.046875 -19.421875 13.335938 -19.195312 14.484375 -18.75 C 15.640625 -18.3125 16.625 -17.671875 17.4375 -16.828125 C 18.257812 -15.992188 18.882812 -14.960938 19.3125 -13.734375 C 19.75 -12.515625 19.96875 -11.113281 19.96875 -9.53125 C 19.96875 -7.945312 19.75 -6.539062 19.3125 -5.3125 C 18.882812 -4.09375 18.257812 -3.0625 17.4375 -2.21875 C 16.625 -1.382812 15.640625 -0.742188 14.484375 -0.296875 C 13.335938 0.140625 12.046875 0.359375 10.609375 0.359375 Z M 10.609375 -4.140625 C 11.179688 -4.140625 11.734375 -4.238281 12.265625 -4.4375 C 12.796875 -4.644531 13.257812 -4.96875 13.65625 -5.40625 C 14.050781 -5.851562 14.359375 -6.414062 14.578125 -7.09375 C 14.804688 -7.78125 14.921875 -8.59375 14.921875 -9.53125 C 14.921875 -10.46875 14.804688 -11.273438 14.578125 -11.953125 C 14.359375 -12.640625 14.050781 -13.203125 13.65625 -13.640625 C 13.257812 -14.085938 12.796875 -14.410156 12.265625 -14.609375 C 11.734375 -14.816406 11.179688 -14.921875 10.609375 -14.921875 C 10.035156 -14.921875 9.484375 -14.816406 8.953125 -14.609375 C 8.429688 -14.410156 7.972656 -14.085938 7.578125 -13.640625 C 7.179688 -13.203125 6.867188 -12.640625 6.640625 -11.953125 C 6.410156 -11.273438 6.296875 -10.46875 6.296875 -9.53125 C 6.296875 -8.59375 6.410156 -7.78125 6.640625 -7.09375 C 6.867188 -6.414062 7.179688 -5.851562 7.578125 -5.40625 C 7.972656 -4.96875 8.429688 -4.644531 8.953125 -4.4375 C 9.484375 -4.238281 10.035156 -4.140625 10.609375 -4.140625 Z M 10.609375 -4.140625 "/></g></g></g><g fill="#ff5757" fill-opacity="1"><g transform="translate(108.451907, 41.433867)"><g><path d="M 10.609375 0.359375 C 9.171875 0.359375 7.875 0.140625 6.71875 -0.296875 C 5.570312 -0.742188 4.585938 -1.382812 3.765625 -2.21875 C 2.953125 -3.0625 2.332031 -4.09375 1.90625 -5.3125 C 1.476562 -6.539062 1.265625 -7.945312 1.265625 -9.53125 C 1.265625 -11.113281 1.476562 -12.515625 1.90625 -13.734375 C 2.332031 -14.960938 2.953125 -15.992188 3.765625 -16.828125 C 4.585938 -17.671875 5.570312 -18.3125 6.71875 -18.75 C 7.875 -19.195312 9.171875 -19.421875 10.609375 -19.421875 C 12.046875 -19.421875 13.335938 -19.195312 14.484375 -18.75 C 15.640625 -18.3125 16.625 -17.671875 17.4375 -16.828125 C 18.257812 -15.992188 18.882812 -14.960938 19.3125 -13.734375 C 19.75 -12.515625 19.96875 -11.113281 19.96875 -9.53125 C 19.96875 -7.945312 19.75 -6.539062 19.3125 -5.3125 C 18.882812 -4.09375 18.257812 -3.0625 17.4375 -2.21875 C 16.625 -1.382812 15.640625 -0.742188 14.484375 -0.296875 C 13.335938 0.140625 12.046875 0.359375 10.609375 0.359375 Z M 10.609375 -4.140625 C 11.179688 -4.140625 11.734375 -4.238281 12.265625 -4.4375 C 12.796875 -4.644531 13.257812 -4.96875 13.65625 -5.40625 C 14.050781 -5.851562 14.359375 -6.414062 14.578125 -7.09375 C 14.804688 -7.78125 14.921875 -8.59375 14.921875 -9.53125 C 14.921875 -10.46875 14.804688 -11.273438 14.578125 -11.953125 C 14.359375 -12.640625 14.050781 -13.203125 13.65625 -13.640625 C 13.257812 -14.085938 12.796875 -14.410156 12.265625 -14.609375 C 11.734375 -14.816406 11.179688 -14.921875 10.609375 -14.921875 C 10.035156 -14.921875 9.484375 -14.816406 8.953125 -14.609375 C 8.429688 -14.410156 7.972656 -14.085938 7.578125 -13.640625 C 7.179688 -13.203125 6.867188 -12.640625 6.640625 -11.953125 C 6.410156 -11.273438 6.296875 -10.46875 6.296875 -9.53125 C 6.296875 -8.59375 6.410156 -7.78125 6.640625 -7.09375 C 6.867188 -6.414062 7.179688 -5.851562 7.578125 -5.40625 C 7.972656 -4.96875 8.429688 -4.644531 8.953125 -4.4375 C 9.484375 -4.238281 10.035156 -4.140625 10.609375 -4.140625 Z M 10.609375 -4.140625 "/></g></g></g><g fill="#ff5757" fill-opacity="1"><g transform="translate(128.769624, 41.433867)"><g><path d="M 2.34375 -25.171875 L 7.375 -25.171875 L 7.375 -10.609375 L 14.390625 -19.0625 L 20.328125 -19.0625 L 12.59375 -9.71875 L 20.859375 0 L 14.921875 0 L 7.375 -8.8125 L 7.375 0 L 2.34375 0 Z M 2.34375 -25.171875 "/></g></g></g><g fill="#ff5757" fill-opacity="1"><g transform="translate(66.73765, 68.948146)"><g><path d="M 2.15625 -19.0625 L 6.46875 -19.0625 L 7.015625 -16.90625 L 7.1875 -16.90625 C 7.738281 -17.71875 8.375 -18.335938 9.09375 -18.765625 C 9.8125 -19.203125 10.675781 -19.421875 11.6875 -19.421875 C 12.5 -19.421875 13.195312 -19.3125 13.78125 -19.09375 C 14.375 -18.882812 14.878906 -18.625 15.296875 -18.3125 C 15.722656 -18 16.0625 -17.660156 16.3125 -17.296875 C 16.5625 -16.941406 16.757812 -16.628906 16.90625 -16.359375 L 17.078125 -16.359375 C 17.222656 -16.628906 17.441406 -16.941406 17.734375 -17.296875 C 18.023438 -17.660156 18.410156 -18 18.890625 -18.3125 C 19.367188 -18.625 19.929688 -18.882812 20.578125 -19.09375 C 21.222656 -19.3125 21.976562 -19.421875 22.84375 -19.421875 C 23.875 -19.421875 24.820312 -19.242188 25.6875 -18.890625 C 26.550781 -18.546875 27.285156 -18.050781 27.890625 -17.40625 C 28.503906 -16.757812 28.984375 -15.96875 29.328125 -15.03125 C 29.679688 -14.09375 29.859375 -13.039062 29.859375 -11.875 L 29.859375 0 L 24.8125 0 L 24.8125 -11.15625 C 24.8125 -11.820312 24.726562 -12.394531 24.5625 -12.875 C 24.394531 -13.351562 24.164062 -13.742188 23.875 -14.046875 C 23.59375 -14.347656 23.253906 -14.566406 22.859375 -14.703125 C 22.460938 -14.847656 22.035156 -14.921875 21.578125 -14.921875 C 20.765625 -14.921875 20.050781 -14.609375 19.4375 -13.984375 C 18.832031 -13.367188 18.53125 -12.425781 18.53125 -11.15625 L 18.53125 0 L 13.484375 0 L 13.484375 -11.15625 C 13.484375 -11.820312 13.398438 -12.394531 13.234375 -12.875 C 13.066406 -13.351562 12.835938 -13.742188 12.546875 -14.046875 C 12.265625 -14.347656 11.925781 -14.566406 11.53125 -14.703125 C 11.132812 -14.847656 10.707031 -14.921875 10.25 -14.921875 C 9.4375 -14.921875 8.722656 -14.582031 8.109375 -13.90625 C 7.492188 -13.238281 7.1875 -12.320312 7.1875 -11.15625 L 7.1875 0 L 2.15625 0 Z M 2.15625 -19.0625 "/></g></g></g><g fill="#ff5757" fill-opacity="1"><g transform="translate(97.663811, 68.948146)"><g><path d="M 7.59375 0 L -0.1875 -19.0625 L 5.390625 -19.0625 L 10.078125 -6.65625 L 10.21875 -6.65625 L 14.75 -19.0625 L 20.328125 -19.0625 L 9.890625 7.1875 L 4.671875 7.1875 Z M 7.59375 0 "/></g></g></g><g fill="#ff5757" fill-opacity="1"><g transform="translate(116.902707, 68.948146)"><g/></g></g><g fill="#ff5757" fill-opacity="1"><g transform="translate(124.274537, 68.948146)"><g><path d="M 9.71875 0 C 7.71875 0 6.226562 -0.476562 5.25 -1.4375 C 4.269531 -2.394531 3.78125 -3.773438 3.78125 -5.578125 L 3.78125 -14.390625 L 0.71875 -14.390625 L 0.71875 -19.0625 L 3.78125 -19.0625 L 4.5 -24.09375 L 8.8125 -24.09375 L 8.8125 -19.0625 L 13.3125 -19.0625 L 13.3125 -14.390625 L 8.8125 -14.390625 L 8.8125 -6.46875 C 8.8125 -5.914062 8.972656 -5.476562 9.296875 -5.15625 C 9.617188 -4.832031 10.054688 -4.671875 10.609375 -4.671875 L 13.3125 -4.671875 L 13.3125 0 Z M 9.71875 0 "/></g></g></g><g fill="#ff5757" fill-opacity="1"><g transform="translate(138.119307, 68.948146)"><g><path d="M 2.15625 -19.0625 L 7.1875 -19.0625 L 7.1875 0 L 2.15625 0 Z M 4.671875 -21.046875 C 3.859375 -21.046875 3.175781 -21.320312 2.625 -21.875 C 2.070312 -22.425781 1.796875 -23.109375 1.796875 -23.921875 C 1.796875 -24.734375 2.070312 -25.414062 2.625 -25.96875 C 3.175781 -26.519531 3.859375 -26.796875 4.671875 -26.796875 C 5.492188 -26.796875 6.175781 -26.519531 6.71875 -25.96875 C 7.269531 -25.414062 7.546875 -24.734375 7.546875 -23.921875 C 7.546875 -23.109375 7.269531 -22.425781 6.71875 -21.875 C 6.175781 -21.320312 5.492188 -21.046875 4.671875 -21.046875 Z M 4.671875 -21.046875 "/></g></g></g><g fill="#ff5757" fill-opacity="1"><g transform="translate(146.56996, 68.948146)"><g><path d="M 10.609375 0.359375 C 9.171875 0.359375 7.875 0.140625 6.71875 -0.296875 C 5.570312 -0.742188 4.585938 -1.382812 3.765625 -2.21875 C 2.953125 -3.0625 2.332031 -4.09375 1.90625 -5.3125 C 1.476562 -6.539062 1.265625 -7.945312 1.265625 -9.53125 C 1.265625 -11.113281 1.476562 -12.515625 1.90625 -13.734375 C 2.332031 -14.960938 2.953125 -15.992188 3.765625 -16.828125 C 4.585938 -17.671875 5.570312 -18.3125 6.71875 -18.75 C 7.875 -19.195312 9.171875 -19.421875 10.609375 -19.421875 C 11.953125 -19.421875 13.125 -19.234375 14.125 -18.859375 C 15.132812 -18.492188 15.992188 -17.992188 16.703125 -17.359375 C 17.410156 -16.722656 17.984375 -15.988281 18.421875 -15.15625 C 18.867188 -14.332031 19.203125 -13.476562 19.421875 -12.59375 L 14.390625 -12.59375 C 14.023438 -13.3125 13.554688 -13.878906 12.984375 -14.296875 C 12.410156 -14.710938 11.617188 -14.921875 10.609375 -14.921875 C 9.335938 -14.921875 8.300781 -14.472656 7.5 -13.578125 C 6.695312 -12.679688 6.296875 -11.332031 6.296875 -9.53125 C 6.296875 -7.726562 6.695312 -6.378906 7.5 -5.484375 C 8.300781 -4.585938 9.335938 -4.140625 10.609375 -4.140625 C 11.617188 -4.140625 12.410156 -4.347656 12.984375 -4.765625 C 13.554688 -5.179688 14.023438 -5.75 14.390625 -6.46875 L 19.421875 -6.46875 C 19.203125 -5.5625 18.867188 -4.695312 18.421875 -3.875 C 17.984375 -3.0625 17.410156 -2.335938 16.703125 -1.703125 C 15.992188 -1.066406 15.132812 -0.5625 14.125 -0.1875 C 13.125 0.175781 11.953125 0.359375 10.609375 0.359375 Z M 10.609375 0.359375 "/></g></g></g><g fill="#ff5757" fill-opacity="1"><g transform="translate(166.168463, 68.948146)"><g><path d="M 2.34375 -25.171875 L 7.375 -25.171875 L 7.375 -10.609375 L 14.390625 -19.0625 L 20.328125 -19.0625 L 12.59375 -9.71875 L 20.859375 0 L 14.921875 0 L 7.375 -8.8125 L 7.375 0 L 2.34375 0 Z M 2.34375 -25.171875 "/></g></g></g><g fill="#ff5757" fill-opacity="1"><g transform="translate(185.407358, 68.948146)"><g><path d="M 10.609375 0.359375 C 9.171875 0.359375 7.875 0.140625 6.71875 -0.296875 C 5.570312 -0.742188 4.585938 -1.382812 3.765625 -2.21875 C 2.953125 -3.0625 2.332031 -4.09375 1.90625 -5.3125 C 1.476562 -6.539062 1.265625 -7.945312 1.265625 -9.53125 C 1.265625 -11.113281 1.476562 -12.515625 1.90625 -13.734375 C 2.332031 -14.960938 2.953125 -15.992188 3.765625 -16.828125 C 4.585938 -17.671875 5.570312 -18.3125 6.71875 -18.75 C 7.875 -19.195312 9.171875 -19.421875 10.609375 -19.421875 C 12.003906 -19.421875 13.265625 -19.1875 14.390625 -18.71875 C 15.515625 -18.25 16.476562 -17.585938 17.28125 -16.734375 C 18.082031 -15.890625 18.695312 -14.882812 19.125 -13.71875 C 19.5625 -12.5625 19.78125 -11.285156 19.78125 -9.890625 C 19.78125 -9.628906 19.765625 -9.378906 19.734375 -9.140625 C 19.710938 -8.898438 19.691406 -8.679688 19.671875 -8.484375 C 19.648438 -8.273438 19.628906 -8.082031 19.609375 -7.90625 L 6.46875 -7.90625 C 6.664062 -6.832031 7.085938 -5.9375 7.734375 -5.21875 C 8.378906 -4.5 9.335938 -4.140625 10.609375 -4.140625 C 11.585938 -4.140625 12.3125 -4.300781 12.78125 -4.625 C 13.25 -4.945312 13.664062 -5.382812 14.03125 -5.9375 L 19.421875 -5.9375 C 19.203125 -5.125 18.867188 -4.335938 18.421875 -3.578125 C 17.984375 -2.828125 17.410156 -2.15625 16.703125 -1.5625 C 15.992188 -0.976562 15.132812 -0.507812 14.125 -0.15625 C 13.125 0.1875 11.953125 0.359375 10.609375 0.359375 Z M 14.5625 -11.6875 C 14.46875 -12.09375 14.316406 -12.488281 14.109375 -12.875 C 13.910156 -13.257812 13.648438 -13.609375 13.328125 -13.921875 C 13.003906 -14.234375 12.613281 -14.476562 12.15625 -14.65625 C 11.695312 -14.832031 11.179688 -14.921875 10.609375 -14.921875 C 9.429688 -14.921875 8.515625 -14.609375 7.859375 -13.984375 C 7.203125 -13.367188 6.738281 -12.601562 6.46875 -11.6875 Z M 14.5625 -11.6875 "/></g></g></g><g fill="#ff5757" fill-opacity="1"><g transform="translate(205.545283, 68.948146)"><g><path d="M 9.71875 0 C 7.71875 0 6.226562 -0.476562 5.25 -1.4375 C 4.269531 -2.394531 3.78125 -3.773438 3.78125 -5.578125 L 3.78125 -14.390625 L 0.71875 -14.390625 L 0.71875 -19.0625 L 3.78125 -19.0625 L 4.5 -24.09375 L 8.8125 -24.09375 L 8.8125 -19.0625 L 13.3125 -19.0625 L 13.3125 -14.390625 L 8.8125 -14.390625 L 8.8125 -6.46875 C 8.8125 -5.914062 8.972656 -5.476562 9.296875 -5.15625 C 9.617188 -4.832031 10.054688 -4.671875 10.609375 -4.671875 L 13.3125 -4.671875 L 13.3125 0 Z M 9.71875 0 "/></g></g></g></svg>